<svg xmlns="http://www.w3.org/2000/svg" xmlns:xlink="http://www.w3.org/1999/xlink" width="26" height="26" viewBox="0 0 26 26"><defs><path id="ypcha" d="M943.5 2652.242l-1.927 1.928-3.187 3.189c-.153.17-.34.324-.511.46a6.24 6.24 0 0 1-6.153.904 6.035 6.035 0 0 1-2.08-1.364l2.642-2.644a2.447 2.447 0 0 0 3.46 0l2.028-2.029 3.085-3.087a2.447 2.447 0 1 0-3.46-3.462l-2.454 2.456a7.067 7.067 0 0 0-4.908-.376l4.72-4.724c2.404-2.404 6.341-2.404 8.744 0 2.42 2.421 2.42 6.344 0 8.749zm-7.654 7.607l-4.618 4.672c-2.403 2.406-6.34 2.406-8.744 0-2.403-2.404-2.403-6.344 0-8.747l5.113-5.118c.068-.068.154-.153.239-.222a6.191 6.191 0 0 1 6.426-1.141c.75.289 1.465.75 2.079 1.363l-2.642 2.645a2.446 2.446 0 0 0-3.46 0l-5.113 5.114a2.447 2.447 0 1 0 3.46 3.463l2.352-2.354c2.011.803 2.557.87 4.908.325z"/></defs><g><g transform="translate(-920 -2641)"><use xlink:href="#ypcha"/><use fill="#c7b299" xlink:href="#ypcha"/></g></g></svg>