<svg xmlns="http://www.w3.org/2000/svg" xmlns:xlink="http://www.w3.org/1999/xlink" width="26" height="25" viewBox="0 0 26 25"><defs><path id="lyeca" d="M991.417 2648.847c.318.643.047 1.42-.607 1.734-.185.087-.381.13-.576.13-.487 0-.954-.267-1.182-.728a4.147 4.147 0 0 0-3.748-2.31c-.726 0-1.315-.579-1.315-1.296 0-.714.589-1.296 1.315-1.296 2.62 0 4.964 1.444 6.113 3.766zm8.04 16.324a1.647 1.647 0 0 1-1.164.474 1.65 1.65 0 0 1-1.163-.474l-4.335-4.27a11.218 11.218 0 0 1-6.836 2.317c-6.166 0-11.182-4.942-11.182-11.016s5.016-11.017 11.182-11.017 11.182 4.943 11.182 11.017c0 2.37-.77 4.562-2.068 6.361l4.383 4.318a1.602 1.602 0 0 1 0 2.29zm-13.497-4.544c2.104 0 4.03-.757 5.521-2.003.46-.385.874-.819 1.243-1.289a8.288 8.288 0 0 0 1.786-5.133c0-4.645-3.836-8.424-8.55-8.424-4.715 0-8.551 3.779-8.551 8.424s3.836 8.424 8.55 8.425z"/></defs><g><g transform="translate(-974 -2641)"><use xlink:href="#lyeca"/><use fill="#fff" xlink:href="#lyeca"/></g></g></svg>